<?xml version="1.0" encoding="UTF-8"?>
<svg version="1.1" xmlns="http://www.w3.org/2000/svg" width="512" height="512">
<path d="M0 0 C19.83075388 21.34431609 21.02893181 54.41164007 21.92578125 81.92578125 C21.95998169 82.89615326 21.99418213 83.86652527 22.02941895 84.86630249 C22.19940441 89.73705136 22.33759847 94.60503886 22.42236328 99.47802734 C22.47707453 101.28095868 22.53285277 103.08385804 22.58984375 104.88671875 C22.59308151 105.71781158 22.59631927 106.54890442 22.59965515 107.40518188 C22.68739962 109.65811849 22.82048669 111.55112366 23.5078125 113.69921875 C26.30400091 116.19871617 26.30400091 116.19871617 29.5078125 117.69921875 C31.8203125 119.82421875 31.8203125 119.82421875 34.5078125 122.69921875 C35.15492188 123.34117187 35.80203125 123.983125 36.46875 124.64453125 C55.72051093 144.57179256 64.67473156 173.25901352 64.48046875 200.5390625 C63.90012334 214.9344597 60.22506092 228.28848002 55.4609375 241.8203125 C54.40304751 244.51023035 54.40304751 244.51023035 54.5078125 246.69921875 C55.62414062 246.96734375 56.74046875 247.23546875 57.890625 247.51171875 C76.65788983 252.15527047 94.4722033 258.5224436 111.5078125 267.69921875 C111.5078125 269.34921875 111.5078125 270.99921875 111.5078125 272.69921875 C106.31335417 273.12681136 102.97870203 271.70175635 98.5078125 269.32421875 C90.27730098 265.1957124 81.73045162 262.20639217 73.0078125 259.32421875 C72.03352295 258.99952606 72.03352295 258.99952606 71.03955078 258.66827393 C63.91802486 256.30289712 56.87193227 254.15603375 49.5078125 252.69921875 C49.3015625 253.50359375 49.0953125 254.30796875 48.8828125 255.13671875 C47.07920888 259.80969175 44.38665941 263.62537879 41.5078125 267.69921875 C42.16265625 267.73660156 42.8175 267.77398437 43.4921875 267.8125 C50.75131494 268.33540325 57.50202821 269.75520531 64.5078125 271.69921875 C65.1328125 273.57421875 65.1328125 273.57421875 65.5078125 275.69921875 C64.8478125 276.35921875 64.1878125 277.01921875 63.5078125 277.69921875 C59.49921159 277.4634187 55.75067857 276.75041615 51.8203125 275.921875 C51.16313232 275.78354248 50.50595215 275.64520996 49.82885742 275.50268555 C47.88213648 275.08740716 45.93902878 274.65530164 43.99609375 274.22265625 C40.69577866 273.7274242 38.65168698 273.66825451 35.5078125 274.69921875 C34.8478125 275.35921875 34.1878125 276.01921875 33.5078125 276.69921875 C34.15105469 276.8192627 34.79429687 276.93930664 35.45703125 277.06298828 C59.36263787 281.59431136 79.44216158 287.75103077 97.5078125 304.69921875 C99.6597562 307.9271343 99.70867693 308.98322684 99.5078125 312.69921875 C98.5178125 313.02921875 97.5278125 313.35921875 96.5078125 313.69921875 C94.74609375 312.51171875 94.74609375 312.51171875 92.8203125 310.69921875 C92.10488281 310.04824219 91.38945312 309.39726562 90.65234375 308.7265625 C89.34084167 307.4867272 88.04283855 306.23215503 86.76953125 304.953125 C72.20869118 290.97342711 48.44029031 285.16065285 28.8828125 283.47265625 C26.4238015 283.48293917 26.4238015 283.48293917 24.6953125 285.19921875 C24.3034375 285.69421875 23.9115625 286.18921875 23.5078125 286.69921875 C24.66796875 286.869375 25.828125 287.03953125 27.0234375 287.21484375 C50.63219367 290.82359992 50.63219367 290.82359992 54.5078125 294.69921875 C54.54845082 296.3653899 54.5505335 298.0330997 54.5078125 299.69921875 C49.73237409 299.18756463 45.21430152 298.45371539 40.57128906 297.23852539 C31.73995311 294.93038281 22.67711748 293.1182144 13.5078125 293.69921875 C11.8578125 294.68921875 10.2078125 295.67921875 8.5078125 296.69921875 C12.7978125 297.02921875 17.0878125 297.35921875 21.5078125 297.69921875 C21.8378125 299.34921875 22.1678125 300.99921875 22.5078125 302.69921875 C20.93742448 304.26960677 19.34115322 303.86313248 17.16015625 303.91015625 C15.79866455 303.94943237 15.79866455 303.94943237 14.40966797 303.98950195 C12.94231201 304.03143677 12.94231201 304.03143677 11.4453125 304.07421875 C-6.39448859 304.74793597 -27.9013135 307.08814885 -41.6640625 319.6875 C-46.18565493 324.60916014 -46.18565493 324.60916014 -48.4921875 330.69921875 C-47.96129836 336.37244579 -46.60150786 340.58989839 -42.4921875 344.69921875 C-41.5021875 345.35921875 -40.5121875 346.01921875 -39.4921875 346.69921875 C-39.8221875 348.34921875 -40.1521875 349.99921875 -40.4921875 351.69921875 C-44.78452401 351.69921875 -45.94714644 351.05235282 -49.03125 348.2265625 C-53.62327142 343.42581283 -54.76488842 339.81550875 -54.9921875 333.26171875 C-54.70141662 325.07323546 -52.41485695 320.47544606 -46.7421875 314.69921875 C-45.1334375 313.21421875 -45.1334375 313.21421875 -43.4921875 311.69921875 C-51.9071875 310.21421875 -51.9071875 310.21421875 -60.4921875 308.69921875 C-61.1521875 310.34921875 -61.8121875 311.99921875 -62.4921875 313.69921875 C-62.84539062 314.37082031 -63.19859375 315.04242188 -63.5625 315.734375 C-66.82011662 321.99623806 -67.61892208 327.72045182 -66.4921875 334.69921875 C-62.85101112 345.78763135 -56.03325667 352.50237959 -45.86523438 357.73901367 C-43.09695247 359.11233011 -40.30472852 360.41897248 -37.4921875 361.69921875 C-37.4921875 363.34921875 -37.4921875 364.99921875 -37.4921875 366.69921875 C-41.66850367 368.09132414 -43.71963217 366.80232255 -47.66796875 365.125 C-58.33018565 359.74227639 -68.47027017 351.26473227 -72.4921875 339.69921875 C-75.50449297 328.43038689 -74.18248936 319.74962203 -68.4921875 309.69921875 C-68.1621875 309.03921875 -67.8321875 308.37921875 -67.4921875 307.69921875 C-69.1421875 307.36921875 -70.7921875 307.03921875 -72.4921875 306.69921875 C-75.9571875 310.65921875 -75.9571875 310.65921875 -79.4921875 314.69921875 C-80.8121875 314.36921875 -82.1321875 314.03921875 -83.4921875 313.69921875 C-84.4921875 310.69921875 -84.4921875 310.69921875 -83.49609375 308.65625 C-82.78259766 307.59470703 -82.78259766 307.59470703 -82.0546875 306.51171875 C-81.58160156 305.79628906 -81.10851562 305.08085937 -80.62109375 304.34375 C-80.24855469 303.80105469 -79.87601562 303.25835937 -79.4921875 302.69921875 C-80.2140625 302.55484375 -80.9359375 302.41046875 -81.6796875 302.26171875 C-84.4921875 301.69921875 -84.4921875 301.69921875 -86.8671875 300.69921875 C-90.10336821 300.69921875 -90.61739339 301.34171966 -92.9296875 303.51171875 C-99.09033449 310.2482523 -103.05052909 318.31776826 -106.4921875 326.69921875 C-108.1421875 326.36921875 -109.7921875 326.03921875 -111.4921875 325.69921875 C-110.96913621 314.19209039 -103.29617661 304.47187477 -96.4921875 295.69921875 C-99.70295739 294.62896212 -101.22366085 294.16590503 -104.4921875 294.69921875 C-113.69375863 301.06733563 -120.54886688 311.98608965 -123.4921875 322.69921875 C-124.08313237 330.03094152 -123.39439447 337.41711966 -122.4921875 344.69921875 C-124.1421875 344.69921875 -125.7921875 344.69921875 -127.4921875 344.69921875 C-131.86599484 335.7693621 -132.06466175 325.36765431 -128.9296875 315.94921875 C-124.65298129 305.87054747 -118.51522648 298.06731578 -110.4921875 290.69921875 C-111.8121875 289.37921875 -113.1321875 288.05921875 -114.4921875 286.69921875 C-126.54202503 290.65719458 -134.7409629 303.03285065 -140.4921875 313.69921875 C-143.22179638 319.73406831 -144.34004498 326.2065568 -145.4921875 332.69921875 C-147.1421875 332.69921875 -148.7921875 332.69921875 -150.4921875 332.69921875 C-152.77334818 324.91025564 -149.20507959 315.61241126 -146.05078125 308.40625 C-140.22762559 297.78425281 -131.6439541 288.33131842 -121.4921875 281.69921875 C-122.02585938 281.21195312 -122.55953125 280.7246875 -123.109375 280.22265625 C-143.22651383 261.0800501 -154.77382859 234.75340617 -159.4921875 207.69921875 C-159.67652344 206.65121094 -159.86085938 205.60320312 -160.05078125 204.5234375 C-161.69052605 190.31715289 -161.40765438 175.48523522 -157.4921875 161.69921875 C-157.30414551 161.01762695 -157.11610352 160.33603516 -156.92236328 159.63378906 C-152.49692714 143.93880552 -145.58480575 125.24463501 -132.4921875 114.69921875 C-131.1696837 114.3252233 -129.83645187 113.9852995 -128.4921875 113.69921875 C-128.50789795 112.78970459 -128.5236084 111.88019043 -128.53979492 110.94311523 C-128.81315722 92.64629588 -128.841304 74.76568124 -125.4921875 56.69921875 C-125.35296875 55.92352539 -125.21375 55.14783203 -125.0703125 54.34863281 C-120.51721408 29.8862684 -108.13886449 8.14383802 -87.4921875 -6.30078125 C-59.68028232 -23.03422242 -24.19644208 -23.05900249 0 0 Z M-96.8046875 9.88671875 C-113.19743775 27.0419225 -118.83897111 49.85180208 -121.4921875 72.69921875 C-121.62496094 73.83230469 -121.75773437 74.96539062 -121.89453125 76.1328125 C-123.45388917 93.24302743 -122.91408952 110.72124582 -121.6171875 127.82421875 C-121.53879639 128.90292236 -121.46040527 129.98162598 -121.37963867 131.09301758 C-121.29560791 132.07939209 -121.21157715 133.0657666 -121.125 134.08203125 C-121.05168457 134.95230957 -120.97836914 135.82258789 -120.90283203 136.71923828 C-120.76731934 137.37263184 -120.63180664 138.02602539 -120.4921875 138.69921875 C-117.55918018 140.16572241 -115.77181406 140.0636217 -112.4921875 139.69921875 C-103.63790286 135.85577674 -97.83226779 128.51263023 -94.21875 119.77734375 C-92.56897429 115.05863043 -92.54983784 111.2305036 -92.9296875 106.26171875 C-93.50908851 96.97994177 -93.67194113 87.69895221 -93.72537231 78.40158081 C-93.73643267 76.7885159 -93.75294174 75.17547755 -93.77536011 73.56253052 C-94.02019997 55.02861045 -92.05871633 34.66143801 -78.4921875 20.69921875 C-68.37989905 11.3032174 -55.89045524 9.02793857 -42.4921875 8.69921875 C-30.81973495 9.25230633 -20.00120625 12.37009469 -11.4921875 20.69921875 C0.5841009 36.06650491 0.85275049 57.011902 0.71362305 75.66943359 C0.69533296 78.19639233 0.69311465 80.72298171 0.69335938 83.25 C0.6713843 93.10636244 0.3108494 102.87426096 -0.4921875 112.69921875 C1.77508583 113.87328896 4.04615874 115.03861614 6.3203125 116.19921875 C6.96291016 116.53308594 7.60550781 116.86695313 8.26757812 117.2109375 C11.20328949 118.70160959 13.16907767 119.69921875 16.5078125 119.69921875 C16.93187742 104.52711836 16.25363624 89.51593386 15.1953125 74.38671875 C15.1363681 73.50582581 15.07742371 72.62493286 15.01669312 71.71734619 C14.37328151 62.22528832 13.50755141 52.8145231 12.046875 43.41015625 C11.87130318 42.27189644 11.87130318 42.27189644 11.69218445 41.11064148 C9.05156279 25.0813917 2.46706468 8.43642164 -11.08886719 -1.46728516 C-38.83299078 -19.89198473 -73.69632359 -12.7308752 -96.8046875 9.88671875 Z M-76.6796875 26.82421875 C-90.36909546 43.06361447 -90.53214913 66.14948458 -89.265625 86.3046875 C-89.04189054 88.77535514 -88.79586871 91.23723181 -88.4921875 93.69921875 C-85.15028229 94.81318715 -84.46390158 94.6068971 -81.24609375 93.5546875 C-80.00025513 93.15854248 -80.00025513 93.15854248 -78.72924805 92.75439453 C-77.84664307 92.46806152 -76.96403809 92.18172852 -76.0546875 91.88671875 C-55.64270877 85.5908455 -35.352312 84.61286038 -14.4921875 89.69921875 C-13.54435016 80.62643161 -13.27527446 71.61232184 -13.25195312 62.49951172 C-13.24220116 60.20243722 -13.21103737 57.90624295 -13.1796875 55.609375 C-13.09610652 43.89274088 -13.52041021 31.03610158 -22.05859375 22.05078125 C-29.14369001 15.55214709 -36.84252946 13.53644312 -46.31860352 13.58520508 C-58.03010356 14.19952278 -68.56415831 18.40866999 -76.6796875 26.82421875 Z M-86.4921875 101.69921875 C-86.74224136 104.65738982 -86.74224136 104.65738982 -86.4921875 107.69921875 C-85.8321875 108.35921875 -85.1721875 109.01921875 -84.4921875 109.69921875 C-83.98057174 115.02002267 -85.00717092 118.05331819 -87.4921875 122.69921875 C-87.1621875 123.35921875 -86.8321875 124.01921875 -86.4921875 124.69921875 C-85.6671875 124.25191406 -84.8421875 123.80460937 -83.9921875 123.34375 C-61.45584265 111.54738199 -38.68955835 109.02677033 -13.4921875 111.69921875 C-14.01619141 110.86390625 -14.01619141 110.86390625 -14.55078125 110.01171875 C-17.67858054 104.76623099 -19.1593172 100.80184091 -19.4921875 94.69921875 C-36.32885665 89.53761215 -72.59376965 87.8008009 -86.4921875 101.69921875 Z M-90.4921875 141.69921875 C-91.31074219 142.3746875 -92.12929687 143.05015625 -92.97265625 143.74609375 C-112.71174832 160.51667119 -124.01345331 185.10654966 -126.4921875 210.69921875 C-128.28750567 236.0711491 -122.839276 257.8683245 -106.4921875 277.69921875 C-105.986875 278.31796875 -105.4815625 278.93671875 -104.9609375 279.57421875 C-91.54418218 294.36003074 -69.12975498 303.624526 -49.4921875 304.69921875 C-24.16596829 305.87518136 0.51264732 299.34389021 19.77197266 282.24487305 C22.4212634 279.79773857 24.9799313 277.270993 27.5078125 274.69921875 C28.26835937 273.93738281 29.02890625 273.17554688 29.8125 272.390625 C44.24387827 257.08887178 53.59344828 234.80579291 54.5078125 213.69921875 C54.559375 212.86132812 54.6109375 212.0234375 54.6640625 211.16015625 C55.54710013 184.44826788 45.96203259 158.80188898 28.1640625 139.10546875 C15.16590027 125.44917172 -1.56311596 117.79561938 -20.375 116.4140625 C-45.76976229 115.84255611 -71.40332925 124.88819064 -90.4921875 141.69921875 Z M-132.4921875 134.69921875 C-138.64918061 145.75671234 -144.17756149 156.42432325 -147.4921875 168.69921875 C-147.80929688 169.78074219 -148.12640625 170.86226562 -148.453125 171.9765625 C-153.06030996 190.42643621 -152.23576531 211.60584835 -146.4921875 229.69921875 C-146.28319824 230.37839355 -146.07420898 231.05756836 -145.85888672 231.75732422 C-140.64314092 248.26408528 -131.93251279 261.70527019 -119.4921875 273.69921875 C-118.8321875 274.02921875 -118.1721875 274.35921875 -117.4921875 274.69921875 C-118.82351486 271.12170317 -120.46669722 267.80193448 -122.25927734 264.43481445 C-136.55494603 237.28239189 -138.15076715 206.37650756 -129.3671875 177.19921875 C-125.65820634 166.56830922 -119.7980913 156.97933569 -113.4921875 147.69921875 C-114.48798828 147.75142578 -114.48798828 147.75142578 -115.50390625 147.8046875 C-124.62355965 148.08426812 -124.62355965 148.08426812 -128.4921875 144.69921875 C-130.62102617 141.61240267 -130.99141197 138.37157264 -131.4921875 134.69921875 C-131.8221875 134.69921875 -132.1521875 134.69921875 -132.4921875 134.69921875 Z " fill="#000000" transform="translate(250.4921875,52.30078125)"/>
<path d="M0 0 C15.12848928 12.88016883 25.04871523 29.99600441 26.94677734 49.88769531 C28.40259838 73.53904647 19.86725084 94.85159033 4.33984375 112.58203125 C-6.83197879 124.58757189 -22.50718557 136.28699426 -39.52075195 137.6340332 C-65.87372614 138.29582375 -87.18912138 131.0319788 -106.53515625 112.64453125 C-120.3289634 98.34793873 -126.86394386 80.29018073 -126.70239258 60.61401367 C-126.02325174 39.11502843 -115.31466933 20.97016832 -100.16015625 6.33203125 C-72.77701576 -17.69027749 -29.57358655 -23.69638331 0 0 Z M-83.28515625 14.45703125 C-84.29578125 15.22015625 -85.30640625 15.98328125 -86.34765625 16.76953125 C-100.36281034 29.59190627 -110.16698872 48.78435518 -111.5234375 67.796875 C-111.88585866 85.36476362 -106.80840406 100.34671022 -94.62890625 113.17578125 C-81.33524515 126.11494472 -65.84337993 132.00907974 -47.43115234 131.87670898 C-28.88693557 131.30308143 -14.01844696 122.03914886 -1.06640625 109.26953125 C12.3409043 94.83088912 21.48123044 75.44167839 21.18505859 55.515625 C20.34227216 36.9472822 12.50996706 21.27936088 -1.1796875 8.71875 C-26.09022608 -11.57678354 -60.39752407 -5.41516775 -83.28515625 14.45703125 Z " fill="#000000" transform="translate(264.28515625,208.54296875)"/>
<path d="M0 0 C6.10776062 5.06071594 8.63130704 10.90057905 9.51171875 18.67578125 C9.83216763 27.1953015 7.93642089 34.68911867 3.1875 41.8125 C2.98218369 44.68674349 2.88650826 47.47228971 2.87890625 50.34765625 C2.85375843 52.06055046 2.82836024 53.773441 2.80273438 55.48632812 C2.77391828 58.18789825 2.7499003 60.88940511 2.73120117 63.59106445 C2.70962694 66.19775368 2.67020833 68.80371617 2.62890625 71.41015625 C2.62879044 72.22162613 2.62867462 73.03309601 2.6285553 73.86915588 C2.58813477 76.14477539 2.58813477 76.14477539 2.1875 79.8125 C-3.2846878 83.4606252 -9.39664536 83.21646122 -15.8125 82.8125 C-16.8125 81.8125 -16.8125 81.8125 -16.84667969 78.39770508 C-16.81246887 76.87573791 -16.77477071 75.35384682 -16.734375 73.83203125 C-16.70709746 72.17645219 -16.68109701 70.52085169 -16.65625 68.86523438 C-16.61312408 66.24901024 -16.56274663 63.63389602 -16.49023438 61.01831055 C-16.42331796 58.4977125 -16.38876452 55.97831097 -16.359375 53.45703125 C-16.33043152 52.68180618 -16.30148804 51.90658112 -16.27166748 51.10786438 C-16.24312826 45.27322757 -17.76130366 42.9718112 -21.8125 38.8125 C-26.00101021 29.94944085 -25.9175923 20.38834606 -22.86328125 11.2109375 C-20.86911455 6.65919642 -18.17119794 2.29029647 -13.8984375 -0.38671875 C-9.32893485 -2.14092857 -4.46351039 -1.88459328 0 0 Z " fill="#000000" transform="translate(227.8125,233.1875)"/>
<path d="M0 0 C2.0625 0.4375 2.0625 0.4375 4 1 C6.37343472 7.43774777 2.32538963 15.0078325 -0.2890625 20.91015625 C-11.30002705 42.28619078 -31.78499214 55.3744523 -54.15869141 62.70751953 C-67.66902568 66.89476291 -80.78949291 69.46088131 -95 69 C-95.495 66.525 -95.495 66.525 -96 64 C-93.73957499 62.8697875 -92.02790472 62.67880491 -89.51953125 62.38671875 C-64.36585224 59.3090869 -40.49296281 53.05227464 -21 36 C-20.30003906 35.40703125 -19.60007812 34.8140625 -18.87890625 34.203125 C-9.85010902 25.96632752 -4.81951872 15.0779418 -1.69140625 3.44921875 C-1 1 -1 1 0 0 Z " fill="#000000" transform="translate(383,383)"/>
<path d="M0 0 C3.79698661 0.42662771 7.0401676 1.79383316 10.51782227 3.32348633 C42.09230334 17.20660018 77.22524177 18.87733026 110.14111328 8.6262207 C114.22599181 7.36959395 117.72493833 6.75246122 122 7 C122 8.65 122 10.3 122 12 C90.33378244 26.95791181 48.80829292 25.32306173 16.38232422 13.91943359 C10.00891293 11.45968089 3.97758265 8.28934017 -2 5 C-1.125 1.125 -1.125 1.125 0 0 Z " fill="#000000" transform="translate(187,416)"/>
<path d="M0 0 C1.2521228 -0.00833862 1.2521228 -0.00833862 2.52954102 -0.0168457 C8.49279793 0.05529793 8.49279793 0.05529793 10.75 2.3125 C10.375 4.4375 10.375 4.4375 9.75 6.3125 C8.491875 6.33828125 7.23375 6.3640625 5.9375 6.390625 C-9.9964958 6.85991606 -26.4783307 8.3356271 -39.3125 18.8125 C-41.42223369 21.53473702 -42.42297964 22.85290725 -42.25 26.3125 C-38.36085437 32.21823967 -31.81428857 33.58905744 -25.25 35.3125 C-21.21128711 36.07394557 -17.3007088 36.48077339 -13.1953125 36.62890625 C-12.08671875 36.67080078 -10.978125 36.71269531 -9.8359375 36.75585938 C-8.69382812 36.79517578 -7.55171875 36.83449219 -6.375 36.875 C-5.2096875 36.91818359 -4.044375 36.96136719 -2.84375 37.00585938 C0.02072625 37.11151629 2.88528321 37.21361799 5.75 37.3125 C6.13218767 38.96864657 6.46395102 40.63707024 6.75 42.3125 C3.46432836 45.59817164 -7.19403372 43.63181608 -11.81469727 43.63378906 C-25.12938871 43.51273898 -37.38494124 42.55663307 -47.625 33.125 C-49.94356837 29.1120932 -49.99008327 25.83869344 -49.25 21.3125 C-45.90592053 12.73420919 -38.65293657 9.24355307 -30.5625 5.625 C-20.48719822 1.69131795 -10.769685 0.06183066 0 0 Z " fill="#000000" transform="translate(265.25,360.6875)"/>
<path d="M0 0 C10.51929604 3.80076755 17.91987029 16.87736244 22.515625 26.3359375 C28.84354085 40.9004612 28.24252436 54.90260452 23.140625 69.7734375 C19.77732593 77.71400748 14.76019824 84.2911082 9.140625 90.7734375 C8.66367187 91.34578125 8.18671875 91.918125 7.6953125 92.5078125 C5.5911698 94.86339364 4.51938826 95.73135269 1.328125 96.0859375 C0.60625 95.9828125 -0.115625 95.8796875 -0.859375 95.7734375 C-1.5390625 93.95703125 -1.5390625 93.95703125 -1.859375 91.7734375 C-0.7421875 90.30859375 -0.7421875 90.30859375 1.015625 88.8359375 C12.4528731 78.10779878 19.69261691 64.00541587 20.26953125 48.25390625 C19.7554819 34.37457386 14.21016135 23.42035436 4.6796875 13.55078125 C3.140625 11.7734375 3.140625 11.7734375 3.140625 9.7734375 C2.5425 9.5053125 1.944375 9.2371875 1.328125 8.9609375 C-0.90174957 7.75043416 -2.31428192 6.7820585 -3.859375 4.7734375 C-3.859375 3.4534375 -3.859375 2.1334375 -3.859375 0.7734375 C-1.859375 -0.2265625 -1.859375 -0.2265625 0 0 Z " fill="#000000" transform="translate(373.859375,330.2265625)"/>
<path d="M0 0 C-0.07421875 2.26171875 -0.07421875 2.26171875 -1 5 C-3.30008446 6.55511784 -5.31349557 7.67510405 -7.8125 8.8125 C-8.52462646 9.14942871 -9.23675293 9.48635742 -9.97045898 9.83349609 C-12.30163692 10.91801045 -14.64700168 11.9637426 -17 13 C-17.77408203 13.34498535 -18.54816406 13.6899707 -19.34570312 14.04541016 C-44.61371828 25.15642842 -72.35852016 31.42744556 -100 31 C-100.042721 29.33388095 -100.04063832 27.66617115 -100 26 C-98.33322129 24.33322129 -96.21117094 24.61439752 -93.91796875 24.38671875 C-92.85078613 24.27545654 -91.78360352 24.16419434 -90.68408203 24.04956055 C-89.53020996 23.93008057 -88.37633789 23.81060059 -87.1875 23.6875 C-58.90821077 20.56059321 -31.93280345 13.9052231 -7.04296875 -0.28515625 C-4.39093363 -1.213115 -2.66642954 -0.7398993 0 0 Z " fill="#000000" transform="translate(374,443)"/>
<path d="M0 0 C1.85546875 0.08984375 1.85546875 0.08984375 4 1 C5.67578125 3.44140625 5.67578125 3.44140625 7.3125 6.5625 C18.76133999 27.05883431 41.03869587 38.84839439 63.04980469 45.0949707 C66.01400268 45.90815508 68.98489417 46.69240336 71.96044922 47.46289062 C74.9880323 48.26019524 77.9930395 49.12841725 81 50 C81.495 51.98 81.495 51.98 82 54 C78.83455413 55.91540861 77.15958891 56.17241726 73.578125 55.3125 C72.72549072 55.11164795 71.87285645 54.9107959 70.99438477 54.70385742 C70.08873779 54.47158447 69.18309082 54.23931152 68.25 54 C67.312771 53.76579346 66.37554199 53.53158691 65.40991211 53.2902832 C38.03151344 46.22827438 13.88055762 32.53213927 -0.8828125 7.6640625 C-2 5 -2 5 -1.7421875 2.7109375 C-1 1 -1 1 0 0 Z " fill="#000000" transform="translate(125,402)"/>
<path d="M0 0 C4.28166896 0.82628699 8.47770577 1.86487636 12.69921875 2.95703125 C13.69876587 3.21383667 13.69876587 3.21383667 14.71850586 3.47583008 C16.66294478 3.97753785 18.60497503 4.48855309 20.546875 5 C31.88044341 7.67520927 43.03307379 8.36550032 54.625 8.3125 C55.74136337 8.3117598 55.74136337 8.3117598 56.88027954 8.31100464 C68.51868994 8.28741253 79.58609447 7.36107585 91 5 C97.70761115 3.85380558 97.70761115 3.85380558 100 5 C99.67 6.65 99.34 8.3 99 10 C84.65226665 14.39216327 70.6967639 15.38148913 55.8125 15.3125 C54.99640259 15.31067719 54.18030518 15.30885437 53.33947754 15.30697632 C35.29938371 15.23912152 15.50057472 14.25028736 -1 6 C-1.042721 4.33388095 -1.04063832 2.66617115 -1 1 C-0.67 0.67 -0.34 0.34 0 0 Z " fill="#000000" transform="translate(188,436)"/>
<path d="M0 0 C9.52653458 1.16583465 17.87841969 7.99310182 25 14 C25.81339844 14.65613281 26.62679688 15.31226563 27.46484375 15.98828125 C38.94173386 25.66140743 47.80955587 38.89271008 50 54 C50.06774144 56.61481958 50.09500258 59.19979256 50.0625 61.8125 C50.05798828 62.50537109 50.05347656 63.19824219 50.04882812 63.91210938 C50.03713156 65.60811068 50.01919924 67.30406703 50 69 C48.34385343 69.38218767 46.67542976 69.71395102 45 70 C43.17206178 68.17206178 43.65578613 65.57284365 43.45605469 63.12084961 C42.37646482 50.37171188 38.77954599 40.27596746 31 30 C30.28457031 29.01966797 30.28457031 29.01966797 29.5546875 28.01953125 C21.52385279 17.91036494 9.14247361 11.16305317 -2 5 C-1.125 1.125 -1.125 1.125 0 0 Z " fill="#000000" transform="translate(323,325)"/>
<path d="M0 0 C6.3549105 -0.25036727 11.89982495 0.60884478 18.0625 2.125 C18.98426025 2.35018311 19.90602051 2.57536621 20.85571289 2.80737305 C42.98665995 8.41947185 63.30754604 19.21164893 77 38 C77.33 38.99 77.66 39.98 78 41 C77.505 41.99 77.505 41.99 77 43 C74.82421875 43.34375 74.82421875 43.34375 72 43 C70.05301941 41.20554784 68.4770805 39.52634088 66.8125 37.5 C50.59859432 18.95893479 28.00673437 10.34628032 4.0625 6.640625 C1 6 1 6 -1 4 C-0.625 1.875 -0.625 1.875 0 0 Z " fill="#000000" transform="translate(300,310)"/>
<path d="M0 0 C2.93793224 -0.26477032 4.52199162 -0.31314614 7.02734375 1.328125 C14.38261334 8.72851894 19.27786151 16.47941949 19.625 27.125 C19.12994565 36.90770451 16.07157916 43.79356593 9.34765625 50.89453125 C5.27141953 54.55025769 0.75153955 57.31086182 -4 60 C-5.11375 60.639375 -6.2275 61.27875 -7.375 61.9375 C-10.1313457 63.05316374 -12.05577069 63.25978494 -15 63 C-15 61.35 -15 59.7 -15 58 C-13.58847656 57.22076172 -13.58847656 57.22076172 -12.1484375 56.42578125 C-10.89044274 55.72167971 -9.63264048 55.01723415 -8.375 54.3125 C-7.75753906 53.97283203 -7.14007813 53.63316406 -6.50390625 53.28320312 C-0.31647966 49.79870499 4.72883101 46.19230329 8.3125 39.875 C9.04919922 38.60269531 9.04919922 38.60269531 9.80078125 37.3046875 C12.43169424 32.2485355 12.68160442 27.58757115 12 22 C9.77791101 15.09491038 5.93440941 10.45304077 0.4765625 5.7890625 C-0.01070313 5.19867188 -0.49796875 4.60828125 -1 4 C-0.7265625 1.7734375 -0.7265625 1.7734375 0 0 Z " fill="#000000" transform="translate(317,353)"/>
<path d="M0 0 C2.54648499 2.01038289 3.74532657 3.3951506 5 6.375 C5 10.36741501 3.60217766 12.01701586 1 15 C-4.03830286 18.51457771 -8.95372292 19.56812307 -15 20 C-15.495 17.525 -15.495 17.525 -16 15 C-12.04 13.35 -8.08 11.7 -4 10 C-4.495 7.525 -4.495 7.525 -5 5 C-17.42493 2.88146355 -28.59939992 5.4075304 -40.0390625 10.171875 C-43 11 -43 11 -45.3984375 10.140625 C-45.92695313 9.76421875 -46.45546875 9.3878125 -47 9 C-46.6953125 7.125 -46.6953125 7.125 -46 5 C-33.32307678 -3.11323086 -13.79337527 -6.89668763 0 0 Z " fill="#000000" transform="translate(286,373)"/>
<path d="M0 0 C0.52207031 0.37511719 1.04414063 0.75023437 1.58203125 1.13671875 C1.44140625 2.9765625 1.44140625 2.9765625 0.58203125 5.13671875 C-19.08031969 16.04994183 -45.82747375 16.47022724 -67.25 11.4765625 C-71.72509234 10.18689022 -71.72509234 10.18689022 -73.41796875 9.13671875 C-74.2734375 7.16015625 -74.2734375 7.16015625 -74.41796875 5.13671875 C-73.75796875 4.47671875 -73.09796875 3.81671875 -72.41796875 3.13671875 C-70.4921875 3.30859375 -70.4921875 3.30859375 -68.10546875 3.88671875 C-46.21982337 8.71535684 -26.36159891 7.98415223 -5.4921875 -0.0703125 C-2.41796875 -0.86328125 -2.41796875 -0.86328125 0 0 Z " fill="#000000" transform="translate(296.41796875,400.86328125)"/>
<path d="M0 0 C0.625 1.875 0.625 1.875 1 4 C-2.65547264 7.65547264 -8.47177405 7.36775999 -13.4375 8.0625 C-14.68563477 8.2380542 -15.93376953 8.4136084 -17.21972656 8.59448242 C-34.85780633 10.93167206 -54.2858122 12.89776899 -72 10 C-72.66 9.34 -73.32 8.68 -74 8 C-73.625 5.875 -73.625 5.875 -73 4 C-71.8126123 3.98541748 -70.62522461 3.97083496 -69.40185547 3.95581055 C-40.62554053 3.81606743 -40.62554053 3.81606743 -12.08203125 0.62109375 C-8.01113578 -0.08499305 -4.12682587 -0.10749377 0 0 Z " fill="#000000" transform="translate(295,456)"/>
<path d="M0 0 C2.475 0.495 2.475 0.495 5 1 C3.99260526 9.37026513 -3.50174641 14.960073 -9.77075195 19.96459961 C-12.46837158 22.04501082 -15.22018767 24.0301083 -18 26 C-18.77601563 26.55429687 -19.55203125 27.10859375 -20.3515625 27.6796875 C-25.97821507 31.35788794 -32.11053888 33.84360995 -38.3125 36.375 C-39.18527588 36.73352051 -40.05805176 37.09204102 -40.95727539 37.46142578 C-41.79250732 37.79126465 -42.62773926 38.12110352 -43.48828125 38.4609375 C-44.61036987 38.90638916 -44.61036987 38.90638916 -45.75512695 39.36083984 C-48.25949107 40.07388229 -50.40885941 40.11237308 -53 40 C-53.33 38.35 -53.66 36.7 -54 35 C-53.33097656 34.731875 -52.66195313 34.46375 -51.97265625 34.1875 C-48.633819 32.82507513 -45.31303497 31.423721 -42 30 C-41.33629395 29.71592285 -40.67258789 29.4318457 -39.98876953 29.13916016 C-24.31789836 22.34734495 -10.46093171 13.80842986 0 0 Z " fill="#000000" transform="translate(360,398)"/>
<path d="M0 0 C5.25624823 0.65703103 7.03821481 2.65405837 10.29296875 6.625 C18.30418534 17.77104048 20.58041132 29.92920377 18.46484375 43.41015625 C17.15941472 49.62342775 15.55534127 54.72828708 12 60 C10.35 59.67 8.7 59.34 7 59 C7.47272076 55.31277809 8.29860805 51.94204823 9.5 48.4375 C12.98086312 38.23262812 12.83847288 29.15982413 9 19 C6.75136344 14.51532428 4.43426802 10.37334336 0.79296875 6.88671875 C0.20128906 6.26410156 -0.39039063 5.64148438 -1 5 C-0.75 2.25 -0.75 2.25 0 0 Z " fill="#000000" transform="translate(399,347)"/>
<path d="M0 0 C1.32 0 2.64 0 4 0 C6.97709007 9.10639316 6.57902111 18.2358302 2.21484375 26.85546875 C1.61349609 27.91701172 1.61349609 27.91701172 1 29 C0.58878906 29.73863281 0.17757813 30.47726562 -0.24609375 31.23828125 C-5.46985967 39.80644122 -14.21528176 48.8412969 -24 52 C-26.76171875 51.6171875 -26.76171875 51.6171875 -29 51 C-28.78515625 48.6796875 -28.78515625 48.6796875 -28 46 C-25.99609375 44.4453125 -25.99609375 44.4453125 -23.4375 43.125 C-12.81187585 37.15282323 -6.16495558 29.56518915 -2 18 C-1.14385734 12.86314405 -0.91975406 7.98646135 -1.0625 2.78515625 C-1 1 -1 1 0 0 Z " fill="#000000" transform="translate(348,370)"/>
<path d="M0 0 C0.495 1.98 0.495 1.98 1 4 C-0.13695312 4.08636719 -1.27390625 4.17273437 -2.4453125 4.26171875 C-21.72804302 5.92962983 -38.11277685 11.81846061 -51 27 C-60.68926554 39.46320849 -63.65077707 53.67524407 -65 69 C-66.485 69.495 -66.485 69.495 -68 70 C-70.89967214 56.23706337 -65.75754295 41.83999151 -58.625 30.1875 C-57.44204568 28.440873 -56.2350077 26.71021718 -55 25 C-54.48953125 24.29230469 -53.9790625 23.58460937 -53.453125 22.85546875 C-40.67630694 6.8211946 -19.96346579 -0.42191974 0 0 Z " fill="#000000" transform="translate(207,49)"/>
<path d="M0 0 C1.65 0 3.3 0 5 0 C5.20753906 1.02738281 5.41507813 2.05476563 5.62890625 3.11328125 C8.64069574 17.04913138 13.72938842 26.97690781 26 35 C30.24163395 37.5112401 34.59411998 39.79015422 39 42 C38.67 43.65 38.34 45.3 38 47 C28.03012451 46.77341192 19.0712024 39.82348537 12.03515625 33.234375 C3.95733017 24.36582122 -0.91047509 14.04110011 -1 2 C-0.67 1.34 -0.34 0.68 0 0 Z " fill="#000000" transform="translate(136,386)"/>
<path d="M0 0 C0.59167969 0.21527344 1.18335938 0.43054688 1.79296875 0.65234375 C2.28796875 2.63234375 2.28796875 2.63234375 2.79296875 4.65234375 C-8.61120871 13.5670438 -20.33024575 19.93752154 -34.01953125 24.58984375 C-34.87853027 24.8844751 -35.7375293 25.17910645 -36.62255859 25.48266602 C-42.46866897 27.37352612 -48.07835704 28.28019017 -54.20703125 28.65234375 C-54.53703125 27.00234375 -54.86703125 25.35234375 -55.20703125 23.65234375 C-50.57319956 22.08879382 -45.93270159 20.55857737 -41.26171875 19.109375 C-27.75431376 14.85931712 -14.59421763 10.12146273 -3.8203125 0.5859375 C-2.20703125 -0.34765625 -2.20703125 -0.34765625 0 0 Z " fill="#000000" transform="translate(371.20703125,429.34765625)"/>
<path d="M0 0 C7.70858475 0.81142997 15.52794313 5.48577034 20.5625 11.375 C24.12666145 16.96978163 25.83305602 22.79020531 24.5625 29.375 C22.2629384 35.83334321 19.00912259 41.17656175 13.5625 45.375 C10.6875 45.25 10.6875 45.25 8.5625 44.375 C8.79349467 40.56358801 10.00553856 38.66866216 12.5 35.9375 C16.23712293 31.77815405 17.64062299 28.56244373 17.4375 22.875 C16.23825629 18.07802515 14.71225327 14.81770514 10.5078125 11.99609375 C7.09834702 10.07324706 3.63697087 8.40824592 0.0625 6.8125 C-2.4375 5.375 -2.4375 5.375 -3.375 3.25 C-3.395625 2.63125 -3.41625 2.0125 -3.4375 1.375 C-2.4375 0.375 -2.4375 0.375 0 0 Z " fill="#000000" transform="translate(293.4375,355.625)"/>
<path d="M0 0 C0.78375 0.04125 1.5675 0.0825 2.375 0.125 C3.3125 2.1875 3.3125 2.1875 3.375 5.125 C2.09375 6.59375 2.09375 6.59375 0.3125 8.1875 C-5.55482743 13.51395155 -10.30020299 22.20932214 -10.828125 30.19921875 C-10.92127657 37.37965236 -10.42493624 42.55123666 -7.625 49.125 C-8.03515625 51.3359375 -8.03515625 51.3359375 -8.625 53.125 C-10.605 53.62 -10.605 53.62 -12.625 54.125 C-13.2759259 52.87764433 -13.92051669 51.62698168 -14.5625 50.375 C-14.92214844 49.67890625 -15.28179687 48.9828125 -15.65234375 48.265625 C-19.18025528 40.50138597 -18.80093137 29.90565557 -16.7890625 21.7265625 C-14.27756987 15.30455786 -7.69353056 0.3663586 0 0 Z " fill="#000000" transform="translate(99.625,352.875)"/>
<path d="M0 0 C2.30175781 0.01904297 2.30175781 0.01904297 5.203125 0.3671875 C12.39937234 1.09540477 19.52189653 1.14742431 26.75 1.125 C28.01199219 1.12886719 29.27398437 1.13273437 30.57421875 1.13671875 C36.82372809 1.13016103 42.81880442 0.89613224 49 0 C50.6657469 -0.05915294 52.33340656 -0.08854052 54 -0.0625 C55.1446875 -0.04896484 55.1446875 -0.04896484 56.3125 -0.03515625 C56.869375 -0.02355469 57.42625 -0.01195312 58 0 C58.625 1.875 58.625 1.875 59 4 C53.35891065 9.64108935 37.68761557 8.25863975 30.24804688 8.2734375 C28.94931641 8.26570313 27.65058594 8.25796875 26.3125 8.25 C25.00216797 8.25773437 23.69183594 8.26546875 22.34179688 8.2734375 C14.36311588 8.25751993 6.81795266 7.60621562 -1 6 C-1.625 4.125 -1.625 4.125 -2 2 C-1.34 1.34 -0.68 0.68 0 0 Z " fill="#000000" transform="translate(232,417)"/>
<path d="M0 0 C6.64820303 -0.06625301 13.25484974 0.0712596 19.89453125 0.40625 C29.79915145 0.90459567 39.53134586 1.05849537 49.42578125 0.31860352 C51.28183598 0.18158349 53.1408858 0.0860701 55 0 C56 1 56 1 56.0625 3.5625 C56.041875 4.366875 56.02125 5.17125 56 6 C42.63520139 9.72593227 26.78388205 8.19729702 13.125 7.3125 C11.9486499 7.24699951 10.7722998 7.18149902 9.56030273 7.11401367 C8.47048096 7.03127197 7.38065918 6.94853027 6.2578125 6.86328125 C4.80592529 6.75947144 4.80592529 6.75947144 3.32470703 6.65356445 C1 6 1 6 -0.39111328 4.07104492 C-1 2 -1 2 0 0 Z " fill="#000000" transform="translate(210,470)"/>
<path d="M0 0 C1.65 0.33 3.3 0.66 5 1 C4.11650485 8.57281553 4.11650485 8.57281553 3.4375 11.0625 C2.00320623 17.41437239 3.25230813 23.23561147 6 29 C8.61748697 32.99577722 11.3062881 36.77992789 15.20703125 39.58984375 C15.79871094 40.05519531 16.39039063 40.52054687 17 41 C17.25 43.6875 17.25 43.6875 17 46 C15.27734375 46.71484375 15.27734375 46.71484375 13 47 C4.3153995 41.54687875 -0.89852366 33.22624003 -3.49609375 23.50390625 C-5.14541118 15.30846073 -3.74006956 7.48013912 0 0 Z " fill="#000000" transform="translate(159,372)"/>
<path d="M0 0 C3.99368639 0.4225402 6.24783211 1.67812828 9.375 4.125 C17.0565459 9.71366962 25.87611838 13.69326781 34.875 16.6875 C36.421875 17.3371875 36.421875 17.3371875 38 18 C38.7578125 19.95703125 38.7578125 19.95703125 39 22 C38.67 22.66 38.34 23.32 38 24 C32.69770183 23.45880936 28.2467899 22.13151812 23.375 19.9375 C22.68639893 19.63239502 21.99779785 19.32729004 21.28833008 19.01293945 C13.38267224 15.41101797 6.21894207 10.81262804 -1 6 C-1.25 3.4375 -1.25 3.4375 -1 1 C-0.67 0.67 -0.34 0.34 0 0 Z " fill="#000000" transform="translate(128,432)"/>
<path d="M0 0 C1.67542976 0.28604898 3.34385343 0.61781233 5 1 C5.20753906 1.82242187 5.41507812 2.64484375 5.62890625 3.4921875 C8.19018521 12.772805 11.67177452 20.76426825 19.375 26.875 C22 29 22 29 23 31.1875 C23 31.785625 23 32.38375 23 33 C22.34 33.66 21.68 34.32 21 35 C15.75193083 34.64668171 13.45158249 32.03283071 9.9921875 28.37109375 C3.56745116 20.72439776 -1.59989239 11.25110232 -1 1 C-0.67 0.67 -0.34 0.34 0 0 Z " fill="#000000" transform="translate(100,390)"/>
<path d="M0 0 C4.99128319 0.10186292 7.29893698 0.86884083 10.875 4.4375 C15.10575273 8.98129049 15.34542931 12.10113446 15.28125 18.23828125 C14.76240563 23.33304467 12.09195825 25.93604068 8.5625 29.375 C5.72635911 31.17352837 4.28980238 31.37597742 1 31 C0.625 28.8125 0.625 28.8125 1 26 C3.9375 23.3125 3.9375 23.3125 7 21 C8.58939347 17.82121306 8.41576711 15.5043228 8 12 C5.18665523 9.18665523 2.30012683 7.20008456 -1 5 C-0.67 3.35 -0.34 1.7 0 0 Z " fill="#000000" transform="translate(289,366)"/>
<path d="M0 0 C2.46529566 0.27559199 3.64782147 0.58151626 5.265625 2.50390625 C9.18358666 10.69742132 9.52063968 20.54011701 7.09375 29.25390625 C6.16706502 31.58054747 5.18664732 33.79622641 4 36 C2.35 36 0.7 36 -1 36 C-1.6875 34.4375 -1.6875 34.4375 -2 32 C-1.2884375 30.5459375 -1.2884375 30.5459375 -0.5625 29.0625 C2.12691563 23.32425375 2.18852493 15.74742561 0.28515625 9.74609375 C-0.46000151 8.15619493 -1.22820746 6.57714128 -2 5 C-1.75908717 2.71132815 -1.61569143 1.61569143 0 0 Z " fill="#000000" transform="translate(422,364)"/>
<path d="M0 0 C2.625 -0.1875 2.625 -0.1875 5 0 C5.11730491 5.39602574 3.56049816 7.95032036 0 12 C-11.43733014 23.92906248 -11.43733014 23.92906248 -19 25 C-19.66 23.68 -20.32 22.36 -21 21 C-18.75906186 18.63850506 -16.36928287 16.74032882 -13.75 14.8125 C-8.24983368 10.5864342 -3.84330741 5.76496111 0 0 Z " fill="#000000" transform="translate(402,411)"/>
<path d="M0 0 C4.14102516 0.53198571 8.13989158 1.494383 12.1875 2.5 C17.45603304 3.74605948 22.55361543 4.4613466 27.953125 4.7890625 C30 5 30 5 31 6 C31.04063832 7.66617115 31.042721 9.33388095 31 11 C19.58904644 11.63296507 8.22216837 10.64507806 -2 5 C-1.125 1.125 -1.125 1.125 0 0 Z " fill="#000000" transform="translate(181,456)"/>
<path d="M0 0 C4.52344407 0.47615201 6.33737007 1.93821575 9.375 5.25 C13.01712443 9.07514576 16.59852128 12.09689702 21 15 C20.67 16.65 20.34 18.3 20 20 C12.06675303 19.50417206 5.87307447 12.11329568 0.37109375 7.02734375 C-1 5 -1 5 -0.71484375 2.25390625 C-0.47894531 1.51011719 -0.24304688 0.76632812 0 0 Z " fill="#000000" transform="translate(95,416)"/>
<path d="M0 0 C7 1 14 2 21 3 C21.042721 4.66611905 21.04063832 6.33382885 21 8 C19.3122094 9.6877906 17.24713215 9.21187677 14.9375 9.25 C9.56835122 9.19407137 5.7897607 8.43842363 1 6 C-0.5625 3.9375 -0.5625 3.9375 -1 2 C-0.67 1.34 -0.34 0.68 0 0 Z " fill="#000000" transform="translate(242,386)"/>
<path d="M0 0 C1.65 0 3.3 0 5 0 C7.1591338 6.87581298 8.35482211 12.78528371 8 20 C6.34385343 20.38218767 4.67542976 20.71395102 3 21 C0.91214143 18.91214143 0.91503245 15.04517173 0.375 12.1875 C0.22804688 11.46240234 0.08109375 10.73730469 -0.0703125 9.99023438 C-0.7711491 6.3074728 -1.08453328 3.58114678 0 0 Z " fill="#000000" transform="translate(375,357)"/>
<path d="M0 0 C5.25293318 0.65661665 7.03389571 2.6512856 10.2890625 6.6171875 C14.59679164 12.6165363 17.51690646 18.59256574 18 26 C17.01 26.33 16.02 26.66 15 27 C14.50693359 25.65808594 14.50693359 25.65808594 14.00390625 24.2890625 C10.94173228 16.50499967 7.83349747 10.95368151 1.7578125 4.98828125 C0 3 0 3 0 0 Z " fill="#000000" transform="translate(237,60)"/>
<path d="M0 0 C1.65 0.33 3.3 0.66 5 1 C5.3077917 4.13837611 5.27813784 5.59343628 3.46875 8.23828125 C2.8190625 8.92277344 2.169375 9.60726563 1.5 10.3125 C0.8503125 11.00988281 0.200625 11.70726562 -0.46875 12.42578125 C-0.9740625 12.94527344 -1.479375 13.46476562 -2 14 C-3.65 13.67 -5.3 13.34 -7 13 C-6.65986985 7.55791766 -3.29703472 4.06331802 0 0 Z " fill="#000000" transform="translate(418,402)"/>
</svg>
