<?xml version="1.0" encoding="UTF-8"?>
<svg version="1.1" xmlns="http://www.w3.org/2000/svg" width="1000" height="1000">
<path d="M0 0 C26.07 0 52.14 0 79 0 C79 56.1 79 112.2 79 170 C141.7 170 204.4 170 269 170 C269 195.08 269 220.16 269 246 C206.3 246 143.6 246 79 246 C79.14872676 292.92872742 79.14872676 292.92872742 79.30664062 339.85742188 C79.32860651 346.18351211 79.35051144 352.50960256 79.37231445 358.83569336 C79.37641723 360.02500065 79.37641723 360.02500065 79.3806029 361.23833436 C79.42467047 374.03833609 79.46529687 386.83834656 79.50465261 399.63836355 C79.54511932 412.77480486 79.58928319 425.91122998 79.63687855 439.04764742 C79.66613043 447.15338382 79.69249914 455.25911906 79.71517897 463.36487656 C79.73287931 469.58055659 79.75572376 475.79620804 79.78049088 482.01186371 C79.78984438 484.56159594 79.79752575 487.11133493 79.80341911 489.6610775 C79.81170915 493.14001665 79.82599406 496.61888155 79.84178162 500.09779358 C79.84275972 501.10850499 79.84373783 502.1192164 79.84474558 503.16055542 C79.88799134 510.5627485 80.50198254 516.97090709 83 524 C83.72249061 526.39160214 84.43050093 528.78761989 85.125 531.1875 C85.47820312 532.39792969 85.83140625 533.60835937 86.1953125 534.85546875 C87 538 87 538 87 541 C87.66 541 88.32 541 89 541 C89.51046875 542.10794922 89.51046875 542.10794922 90.03125 543.23828125 C97.11059217 558.05594691 107.24663239 570.83108826 121 580 C121 580.66 121 581.32 121 582 C121.680625 582.268125 122.36125 582.53625 123.0625 582.8125 C126.39710809 584.16053306 129.69743237 585.57536298 133 587 C133 587.66 133 588.32 133 589 C134.07121094 589.20109375 134.07121094 589.20109375 135.1640625 589.40625 C137.94685963 589.98887419 140.64248714 590.71704503 143.375 591.5 C147.59292075 592.67005921 151.65333763 593.51703751 156 594 C156 594.66 156 595.32 156 596 C166.23 596 176.46 596 187 596 C187 595.34 187 594.68 187 594 C187.99 593.81824219 188.98 593.63648438 190 593.44921875 C207.53464732 590.15022581 221.94969951 583.62539771 233 569 C233.33 568.319375 233.66 567.63875 234 566.9375 C236.86744733 561.38182081 242.58107526 557.81114197 248 555 C248.66 555 249.32 555 250 555 C250 554.34 250 553.68 250 553 C262.04355536 548.02870442 275.87564834 548.60066722 288 553 C288 553.66 288 554.32 288 555 C288.721875 555.226875 289.44375 555.45375 290.1875 555.6875 C293.56218281 557.26235198 295.48030013 559.28137646 298 562 C298.75216797 562.65548828 298.75216797 562.65548828 299.51953125 563.32421875 C301.44829316 565.50743474 302.1312174 567.62262632 303.0625 570.375 C304.44762003 574.43993003 304.44762003 574.43993003 306.1015625 578.3984375 C308.98043314 586.73464553 307.55550705 597.10052619 304 605 C303.64035156 605.83917969 303.28070312 606.67835938 302.91015625 607.54296875 C301.96658436 609.70881883 300.99733924 611.85850507 300 614 C299.34 614 298.68 614 298 614 C297.71125 614.7425 297.4225 615.485 297.125 616.25 C296.75375 617.1575 296.3825 618.065 296 619 C295.731875 619.680625 295.46375 620.36125 295.1875 621.0625 C293.57284246 623.69694125 291.44443032 625.12404185 289 627 C286.46140318 629.41476283 284.17637377 631.76673147 282.0625 634.5625 C279.66790267 637.39247866 277.18743351 639.12911511 274 641 C273.34 641 272.68 641 272 641 C271.67 641.99 271.34 642.98 271 644 C268.33916031 645.99396257 265.38757675 648 262 648 C262 648.66 262 649.32 262 650 C260.21046815 650.83790789 258.41830305 651.67019396 256.625 652.5 C255.62726563 652.9640625 254.62953125 653.428125 253.6015625 653.90625 C251 655 251 655 249 655 C249 655.66 249 656.32 249 657 C246.75267898 657.84124316 244.50261215 658.67314832 242.25 659.5 C241.61578125 659.73847656 240.9815625 659.97695313 240.328125 660.22265625 C236.96713393 661.44801758 234.63128413 662 231 662 C231 662.66 231 663.32 231 664 C229.92685547 664.21148682 229.92685547 664.21148682 228.83203125 664.42724609 C225.55427401 665.07442294 222.2771365 665.72468752 219 666.375 C217.87464844 666.59671875 216.74929688 666.8184375 215.58984375 667.046875 C208.5776961 668.43846227 208.5776961 668.43846227 201.6328125 670.125 C183.78139233 674.4246969 159.07114551 674.20562215 141.33740234 669.58837891 C136.58738511 668.39268833 131.78798807 667.40570582 127 666.375 C125.93910156 666.14554688 124.87820313 665.91609375 123.78515625 665.6796875 C121.19034886 665.11864807 118.59529466 664.55878022 116 664 C116 663.34 116 662.68 116 662 C115.45472656 661.89042969 114.90945313 661.78085937 114.34765625 661.66796875 C108.74464935 660.48990063 103.3945613 658.912965 98 657 C98 656.34 98 655.68 98 655 C97.39671875 654.80664062 96.7934375 654.61328125 96.171875 654.4140625 C95.37265625 654.15367187 94.5734375 653.89328125 93.75 653.625 C92.96109375 653.36976563 92.1721875 653.11453125 91.359375 652.8515625 C89.13372042 652.04826333 87.09068328 651.10288338 85 650 C85 649.34 85 648.68 85 648 C84.29875 647.731875 83.5975 647.46375 82.875 647.1875 C77.69445901 645.04771133 73.90625036 643.03645871 70 639 C69.360625 638.690625 68.72125 638.38125 68.0625 638.0625 C65.80857924 636.90138931 64.3492584 635.43371481 62.609375 633.61328125 C60.52630775 631.52515801 58.32882989 629.58507295 56.125 627.625 C48.29528745 620.5932936 41.57061489 613.23452291 35 605 C34.31292969 604.154375 33.62585938 603.30875 32.91796875 602.4375 C21 587.29124236 21 587.29124236 21 582 C20.34 582 19.68 582 19 582 C18.16013916 580.06532058 17.32831973 578.12714871 16.5 576.1875 C16.0359375 575.10855469 15.571875 574.02960937 15.09375 572.91796875 C14 570 14 570 14 567 C13.34 567 12.68 567 12 567 C9 558 9 558 6 549 C5.69716528 548.18798693 5.39433055 547.37597385 5.08231902 546.53935432 C0.11494117 530.29524336 -0.58475658 513.26239405 -0.48101807 496.41064453 C-0.48276816 494.24915776 -0.48628105 492.08767185 -0.49137473 489.92619038 C-0.50021258 484.06288581 -0.48446741 478.19988 -0.46426249 472.33661342 C-0.44683827 465.98523862 -0.45284468 459.63387797 -0.45587158 453.28248596 C-0.45795956 442.30354827 -0.44565006 431.32470787 -0.42292023 420.34579468 C-0.39916948 408.84402001 -0.38383986 397.34228363 -0.37950897 385.84048462 C-0.37923401 385.12262039 -0.37895906 384.40475616 -0.37867576 383.66513848 C-0.37732224 380.01877021 -0.37611678 376.37240191 -0.37496826 372.72603357 C-0.36658926 346.96690661 -0.33970344 321.20782943 -0.30175781 295.44873047 C-0.26496026 270.43994408 -0.23665521 245.43117136 -0.21972656 220.42236328 C-0.21920046 219.65010489 -0.21867435 218.8778465 -0.21813231 218.08218634 C-0.21285777 210.32613276 -0.20775458 202.57007906 -0.20277687 194.81402528 C-0.19263478 179.01712941 -0.18134978 163.22023443 -0.16937256 147.42333984 C-0.1688234 146.69718605 -0.16827424 145.97103226 -0.16770844 145.22287381 C-0.13096885 96.81522712 -0.0666759 48.40761367 0 0 Z " fill="#FF4E00" transform="translate(213,139)"/>
<path d="M0 0 C0.33 0.33 0.66 0.66 1 1 C2.57545697 1.30892787 4.16145405 1.56444685 5.75 1.796875 C6.74306152 1.94842041 7.73612305 2.09996582 8.75927734 2.25610352 C9.82871582 2.41908936 10.8981543 2.5820752 12 2.75 C22.33177882 4.39226391 32.06385376 6.78216708 42 10 C43.832182 10.52486911 45.66534856 11.04632895 47.5 11.5625 C52.196589 12.9770395 56.5625208 14.92707455 61 17 C62.41549468 17.62764978 63.83218565 18.25260791 65.25 18.875 C71.19742799 21.51595381 77.09648532 24.26266707 83 27 C83 27.66 83 28.32 83 29 C83.86625 29.268125 84.7325 29.53625 85.625 29.8125 C88.91791964 30.97111987 91.91127875 32.38209839 95 34 C95 34.66 95 35.32 95 36 C96.175625 36.2784375 96.175625 36.2784375 97.375 36.5625 C102.48771508 38.58995598 106.57893852 41.77361434 111 45 C111.99 45.66 112.98 46.32 114 47 C114 47.66 114 48.32 114 49 C114.7425 49.268125 115.485 49.53625 116.25 49.8125 C118.89061949 50.95276751 120.85552844 52.09380306 123 54 C123 54.66 123 55.32 123 56 C123.86818359 56.39251953 123.86818359 56.39251953 124.75390625 56.79296875 C127.13570631 58.07292739 128.92316646 59.51356054 130.9375 61.3125 C131.63617187 61.93640625 132.33484375 62.5603125 133.0546875 63.203125 C135.43682928 65.40349692 137.70710381 67.70710381 140 70 C141.11987133 70.9436204 142.24529193 71.88067871 143.375 72.8125 C146.60165703 75.54648467 149.3228574 78.52034304 152.0546875 81.7421875 C154.283879 84.32948205 156.60960385 86.81374909 158.9375 89.3125 C163.7500696 94.591037 167.89348065 100.16659424 172 106 C173.39501604 107.87560815 174.79084562 109.7506115 176.1875 111.625 C179.54485936 116.2331403 182.34066681 120.96662607 185 126 C186.52103119 128.57405279 188.07070693 131.10998856 189.6875 133.625 C191 136 191 136 191 139 C191.66 139 192.32 139 193 139 C193.67305018 140.60149886 194.33822227 142.20631029 195 143.8125 C195.37125 144.70582031 195.7425 145.59914063 196.125 146.51953125 C197 149 197 149 197 152 C197.66 152.33 198.32 152.66 199 153 C200.06466312 155.49113376 201.0260714 157.95324392 201.9375 160.5 C202.20546387 161.23541016 202.47342773 161.97082031 202.74951172 162.72851562 C203.50689008 164.81649839 204.25398127 166.90793888 205 169 C205.30292969 169.825 205.60585938 170.65 205.91796875 171.5 C207.8537588 176.975826 209.20220142 182.59965419 210.55517578 188.2421875 C211.26077716 191.16508558 212.00715862 194.02062788 212.9934082 196.86254883 C227.0302651 240.6141006 218.62427983 295.13808924 206 338 C205.34 338 204.68 338 204 338 C203.9175 338.763125 203.835 339.52625 203.75 340.3125 C201.95462583 349.13975633 198.11696359 357.05479495 194 365 C192.55490838 367.8712151 191.12159544 370.74828035 189.6875 373.625 C188.98326105 375.03394822 188.27884889 376.44280988 187.57421875 377.8515625 C187.05472656 378.89054687 186.53523438 379.92953125 186 381 C185.34 381 184.68 381 184 381 C183.76667969 381.66515625 183.53335937 382.3303125 183.29296875 383.015625 C181.63931223 386.83252404 179.52955942 390.23772852 177.3125 393.75 C176.86841797 394.45576172 176.42433594 395.16152344 175.96679688 395.88867188 C168.86769601 407.04440181 168.86769601 407.04440181 165 411 C164.34 411 163.68 411 163 411 C162.74863281 411.55816406 162.49726562 412.11632812 162.23828125 412.69140625 C160.80320675 415.36689215 159.09235159 417.5737358 157.1875 419.9375 C156.52105469 420.77152344 155.85460937 421.60554688 155.16796875 422.46484375 C152.89686362 425.12060453 150.49529976 427.55460623 148 430 C147.20980469 430.80179688 146.41960937 431.60359375 145.60546875 432.4296875 C140.57491269 437.51713192 135.43633357 442.35299093 130 447 C129.40058594 447.53882813 128.80117188 448.07765625 128.18359375 448.6328125 C105.49549419 469 105.49549419 469 99 469 C99 469.66 99 470.32 99 471 C97.54462432 471.83848804 96.08559627 472.67063934 94.625 473.5 C93.81289063 473.9640625 93.00078125 474.428125 92.1640625 474.90625 C90 476 90 476 88 476 C88 476.66 88 477.32 88 478 C54.55088123 494.28717386 54.55088123 494.28717386 42 496 C42 496.66 42 497.32 42 498 C41.21874756 498.17128418 40.43749512 498.34256836 39.63256836 498.51904297 C36.06704434 499.3020994 32.50227016 500.08851915 28.9375 500.875 C27.70837891 501.14441406 26.47925781 501.41382813 25.21289062 501.69140625 C18.1231993 503.22552674 18.1231993 503.22552674 11.12890625 505.1328125 C2.34745231 507.5666237 -6.71526509 507.16350765 -15.75 507.16796875 C-17.29207387 507.17119001 -18.83414744 507.1745547 -20.3762207 507.17805481 C-23.60384833 507.18402329 -26.83144928 507.18589726 -30.05908203 507.18530273 C-34.14900838 507.18520169 -38.23875887 507.19880408 -42.3286438 507.21607494 C-45.51528674 507.22732489 -48.70188906 507.22921795 -51.8885498 507.22869301 C-53.39368287 507.22985559 -54.89881761 507.23417761 -56.40393066 507.24202538 C-66.7567701 507.29092031 -76.75689044 506.51201923 -87 505 C-87 504.34 -87 503.68 -87 503 C-87.53625 502.97421875 -88.0725 502.9484375 -88.625 502.921875 C-94.29583384 502.51148571 -99.68187447 501.48734838 -105.1875 500.125 C-105.85201172 499.96354492 -106.51652344 499.80208984 -107.20117188 499.63574219 C-111.68339436 498.48959294 -115.77121457 496.85569055 -120 495 C-121.63626964 494.48912848 -123.28171615 494.00606273 -124.9375 493.5625 C-128.91256533 492.41388052 -132.39233332 490.91937416 -136.0390625 488.984375 C-139.25743081 487.36877975 -142.61128681 486.21025471 -146 485 C-146 484.34 -146 483.68 -146 483 C-146.60328125 482.80664062 -147.2065625 482.61328125 -147.828125 482.4140625 C-149.02695312 482.02347656 -149.02695312 482.02347656 -150.25 481.625 C-151.43335938 481.24214844 -151.43335938 481.24214844 -152.640625 480.8515625 C-154.86627958 480.04826333 -156.90931672 479.10288338 -159 478 C-159 477.34 -159 476.68 -159 476 C-159.86625 475.731875 -160.7325 475.46375 -161.625 475.1875 C-166.5457165 473.45613679 -170.32802469 471.67197531 -174 468 C-175.76157897 467.00711003 -177.52379974 466.01518018 -179.296875 465.04296875 C-181.53643776 463.67149339 -183.18173621 461.88096254 -185 460 C-185.639375 459.690625 -186.27875 459.38125 -186.9375 459.0625 C-189.83363343 457.57055247 -191.70100482 455.30231264 -194 453 C-195.77193509 451.49725269 -197.56405556 450.01800119 -199.375 448.5625 C-200.80392578 447.40041016 -200.80392578 447.40041016 -202.26171875 446.21484375 C-203.92658097 444.86822909 -205.59493427 443.52589575 -207.26953125 442.19140625 C-208.90124275 440.85878647 -210.45985585 439.43746787 -212 438 C-212 437.01 -212 436.02 -212 435 C-211.23034912 434.92483154 -210.46069824 434.84966309 -209.66772461 434.7722168 C-185.47221161 432.37889615 -162.71642616 428.92572041 -140.34765625 418.98046875 C-138.23413715 418.0977844 -136.23429717 417.48211053 -134 417 C-134 416.34 -134 415.68 -134 415 C-133.22914063 414.66226562 -132.45828125 414.32453125 -131.6640625 413.9765625 C-130.66117187 413.53054688 -129.65828125 413.08453125 -128.625 412.625 C-127.62726563 412.18414063 -126.62953125 411.74328125 -125.6015625 411.2890625 C-122.91977521 410.13287556 -122.91977521 410.13287556 -121 408 C-120.44828125 408.44988281 -119.8965625 408.89976562 -119.328125 409.36328125 C-116.86725133 411.09332499 -114.55521195 412.11709018 -111.75 413.1875 C-110.41195312 413.70376953 -110.41195312 413.70376953 -109.046875 414.23046875 C-108.37140625 414.48441406 -107.6959375 414.73835938 -107 415 C-107 415.66 -107 416.32 -107 417 C-106.29359375 417.12632812 -105.5871875 417.25265625 -104.859375 417.3828125 C-101.89482207 418.02270234 -99.11962591 418.89568322 -96.25 419.875 C-95.1878125 420.23207031 -94.125625 420.58914063 -93.03125 420.95703125 C-91.27492054 421.56133533 -89.52238043 422.17742558 -87.78125 422.82421875 C-81.04879525 425.27120711 -74.09008772 426.37395601 -67.05664062 427.60498047 C-64.90378989 428.0184791 -62.78676351 428.52729406 -60.65625 429.04296875 C-55.61953851 430.1746145 -50.64944115 430.53517779 -45.5 430.75 C-44.52401855 430.79237793 -43.54803711 430.83475586 -42.54248047 430.87841797 C-31.09310757 431.24307079 -19.33681074 430.73641474 -8 429 C-7.67 428.67 -7.34 428.34 -7 428 C-5.6319314 427.70493371 -4.25289853 427.46029784 -2.87109375 427.23828125 C7.48297098 425.48006208 17.03374826 423.2823393 26.75 419.26953125 C29.53955723 418.17986046 32.0529504 417.46326727 35 417 C35 416.34 35 415.68 35 415 C36.95649397 414.16235732 38.91525556 413.33000941 40.875 412.5 C41.96554687 412.0359375 43.05609375 411.571875 44.1796875 411.09375 C47 410 47 410 49 410 C49 409.34 49 408.68 49 408 C49.556875 407.70867187 50.11375 407.41734375 50.6875 407.1171875 C55.59700264 404.47998845 60.02221538 401.62460706 64.37109375 398.13671875 C66 397 66 397 68 397 C68.33 396.01 68.66 395.02 69 394 C70.63671875 392.5703125 70.63671875 392.5703125 72.6875 391.125 C78.14639701 387.16998517 82.83652559 383.37222505 87 378 C88.66666667 376.33333333 90.33333333 374.66666667 92 373 C95.82173798 368.85767473 99.11771845 364.85436893 102 360 C102.66 360 103.32 360 104 360 C104.4021875 359.1646875 104.4021875 359.1646875 104.8125 358.3125 C106.39408394 355.23257338 108.1523017 352.28562362 110.05859375 349.39453125 C112.93159917 344.97669669 115.39412594 340.3986428 117.75 335.6875 C118.05583008 335.07656494 118.36166016 334.46562988 118.67675781 333.83618164 C119.95550313 331.24675825 121.08533708 328.74398876 122 326 C122.66 326 123.32 326 124 326 C124.23783203 325.08734375 124.23783203 325.08734375 124.48046875 324.15625 C125.80606719 319.17610118 127.23010386 314.26003242 128.84790039 309.3659668 C132.73214063 297.50674585 134.98942657 285.4744189 135.7890625 273.00390625 C136 271 136 271 137 269 C137.0975635 266.84550346 137.13077127 264.68795346 137.1328125 262.53125 C137.13474609 260.59185547 137.13474609 260.59185547 137.13671875 258.61328125 C137.13462402 257.93861816 137.1325293 257.26395508 137.13037109 256.56884766 C137.12502093 254.50806311 137.13032035 252.44749651 137.13671875 250.38671875 C137.13542969 249.09378906 137.13414062 247.80085937 137.1328125 246.46875 C137.13168457 245.27701172 137.13055664 244.08527344 137.12939453 242.85742188 C137.19633896 240.05409934 137.19633896 240.05409934 136 238 C135.7338988 236.2958974 135.51323846 234.58457926 135.31640625 232.87109375 C135.13174805 231.31745117 135.13174805 231.31745117 134.94335938 229.73242188 C134.6926236 227.56323596 134.44260472 225.39396705 134.19335938 223.22460938 C133.53522313 217.69694694 132.75127703 212.32173591 131.38256836 206.92211914 C131 205 131 205 131 201 C130.34 201 129.68 201 129 201 C128.16142312 198.39741676 127.32896656 195.79314353 126.5 193.1875 C126.14228516 192.08051758 126.14228516 192.08051758 125.77734375 190.95117188 C124.80059864 187.86744804 124 185.25504191 124 182 C123.34 182 122.68 182 122 182 C121.16235732 180.04350603 120.33000941 178.08474444 119.5 176.125 C119.0359375 175.03445313 118.571875 173.94390625 118.09375 172.8203125 C117 170 117 170 117 168 C116.34 168 115.68 168 115 168 C114.195625 166.2675 114.195625 166.2675 113.375 164.5 C111.45270559 160.63488847 109.14352969 157.33203344 106.46484375 153.95703125 C105 152 105 152 103.71484375 149.73046875 C101.37036062 145.99745347 98.53081564 142.80503806 95.625 139.5 C95.06039063 138.84902344 94.49578125 138.19804688 93.9140625 137.52734375 C90.73135755 133.88049433 87.46392122 130.3849393 84 127 C83.19949219 126.18015625 82.39898438 125.3603125 81.57421875 124.515625 C78.76512264 121.77046886 75.83903057 119.24903884 72.8125 116.75 C72.27947266 116.30398438 71.74644531 115.85796875 71.19726562 115.3984375 C68.26588274 112.95191899 68.26588274 112.95191899 65 111 C65 110.34 65 109.68 65 109 C64.27425781 108.73445313 63.54851562 108.46890625 62.80078125 108.1953125 C59.99151253 106.99637773 57.71304895 105.58521425 55.1875 103.875 C50.48868623 100.82970901 45.68829639 98.18991348 40.6875 95.6875 C39.6833606 95.18162354 39.6833606 95.18162354 38.65893555 94.66552734 C34.84633244 92.78558675 31.07769851 91.2454366 27 90 C27 89.34 27 88.68 27 88 C25.88882813 87.74605469 24.77765625 87.49210937 23.6328125 87.23046875 C10.09501491 84.10624438 10.09501491 84.10624438 4.8125 82.375 C-13.87219042 76.54791011 -35.07061725 77.1756419 -54.375 78.875 C-55.27790771 78.95339111 -56.18081543 79.03178223 -57.11108398 79.11254883 C-64.98025911 79.86518979 -72.69212549 80.86805378 -80 84 C-82.5380121 84.74138093 -85.06961159 85.45121595 -87.625 86.125 C-88.29273438 86.30675781 -88.96046875 86.48851562 -89.6484375 86.67578125 C-92.52281353 87.44036527 -95.01159663 88 -98 88 C-98 88.66 -98 89.32 -98 90 C-99.18142578 90.41958984 -99.18142578 90.41958984 -100.38671875 90.84765625 C-107.82838935 93.5865433 -114.51820757 96.73160744 -121.41796875 100.64453125 C-124 102 -124 102 -126 102 C-126 102.66 -126 103.32 -126 104 C-127.45537568 104.83848804 -128.91440373 105.67063934 -130.375 106.5 C-131.18710937 106.9640625 -131.99921875 107.428125 -132.8359375 107.90625 C-135 109 -135 109 -137 109 C-137 109.66 -137 110.32 -137 111 C-148.27706173 115.19611599 -159.90915665 117.29625356 -171.5625 113.15625 C-180.89632299 108.7286673 -187.65493005 102.42487476 -192 93 C-193.69360345 87.44179809 -194.35494758 82.41843137 -194.3125 76.625 C-194.31121094 75.88838135 -194.30992187 75.1517627 -194.30859375 74.39282227 C-194.20646485 68.57594329 -193.23102667 63.40492771 -191 58 C-190.34 58 -189.68 58 -189 58 C-188.814375 57.175 -188.62875 56.35 -188.4375 55.5 C-184.97381881 47.06668928 -177.20417244 40.3852457 -169 36.625 C-168.34 36.41875 -167.68 36.2125 -167 36 C-167 35.34 -167 34.68 -167 34 C-165.37750059 33.16180842 -163.75191503 32.3295884 -162.125 31.5 C-161.22007812 31.0359375 -160.31515625 30.571875 -159.3828125 30.09375 C-157 29 -157 29 -155 29 C-155 28.34 -155 27.68 -155 27 C-153.23244474 26.15973604 -151.46082737 25.32801278 -149.6875 24.5 C-148.20830078 23.80390625 -148.20830078 23.80390625 -146.69921875 23.09375 C-144 22 -144 22 -141 22 C-141 21.34 -141 20.68 -141 20 C-137.09375 18.53515625 -133.1875 17.0703125 -129.28125 15.60546875 C-128.57323242 15.33992188 -127.86521484 15.074375 -127.13574219 14.80078125 C-125.72504212 14.27184935 -124.31423678 13.74319812 -122.90332031 13.21484375 C-122.22881836 12.9621875 -121.55431641 12.70953125 -120.859375 12.44921875 C-120.20066406 12.20308838 -119.54195313 11.95695801 -118.86328125 11.70336914 C-117.21068987 11.07953322 -115.56566595 10.43573153 -113.921875 9.7890625 C-101.79802878 5.33967066 -89.15842604 3.53711733 -76.44580078 1.49316406 C-74.06298952 1.24745292 -74.06298952 1.24745292 -73 0 C-68.14540665 -0.57318002 -63.25346196 -0.82298653 -58.375 -1.125 C-57.64313477 -1.17113434 -56.91126953 -1.21726868 -56.15722656 -1.26480103 C-37.57072192 -2.39838968 -18.47038682 -2.60228967 0 0 Z " fill="#221E1F" transform="translate(606,386)"/>
<path d="M0 0 C26.4 0 52.8 0 80 0 C80.01458252 7.82154785 80.02916504 15.6430957 80.04418945 23.70166016 C80.09307486 48.80391742 80.15651894 73.90611797 80.22898628 99.00831757 C80.24025278 102.91553822 80.2513915 106.82275923 80.26245117 110.72998047 C80.26465486 111.50775071 80.26685854 112.28552095 80.269129 113.08685999 C80.30438236 125.63644814 80.32931373 138.18603625 80.35034702 150.73565538 C80.37220487 163.63828245 80.4053487 176.54084596 80.44870156 189.44341886 C80.47504752 197.38790617 80.49286796 205.33231448 80.49934604 213.27684323 C80.50528521 219.39611413 80.52702024 225.51524189 80.55427551 231.63445282 C80.56298552 234.12466309 80.56679315 236.61489675 80.56500816 239.10512161 C80.55586272 257.770513 80.97595554 276.92786663 86.9375 294.8125 C87.17662109 295.59173828 87.41574219 296.37097656 87.66210938 297.17382812 C89.6042031 303.32806181 92.14305471 309.16326534 94.95214844 314.96728516 C96.5943025 318.48924895 97.17743698 320.30749356 96 324 C78.0913863 328.54478414 57.79929887 329.43687675 40 324 C40 323.34 40 322.68 40 322 C39.32453125 321.80664062 38.6490625 321.61328125 37.953125 321.4140625 C36.61507812 321.02347656 36.61507812 321.02347656 35.25 320.625 C33.92742187 320.24214844 33.92742187 320.24214844 32.578125 319.8515625 C27.94914594 318.32259669 25.39791474 316.49336179 22 313 C20.22133749 311.54644045 18.42876162 310.10979382 16.625 308.6875 C4.79443244 298.97066051 2.43790885 290.81125342 0.93606567 275.73396301 C-0.29443508 262.95372917 -0.26656511 250.20958988 -0.22705078 237.3815918 C-0.22648526 234.77754216 -0.22680597 232.1734922 -0.22793579 229.56944275 C-0.22897441 224.00892368 -0.22280637 218.44845226 -0.21146011 212.88794518 C-0.19506707 204.84881884 -0.18998315 196.80971507 -0.18748413 188.77057383 C-0.18312843 175.7213038 -0.16987763 162.67205907 -0.15087891 149.62280273 C-0.13246466 136.96167119 -0.11833545 124.30054656 -0.10986328 111.6394043 C-0.10933783 110.85635466 -0.10881239 110.07330502 -0.10827102 109.2665266 C-0.10566057 105.33741516 -0.10313324 101.40830366 -0.10064721 97.47919214 C-0.07998102 64.98610567 -0.04314752 32.49306633 0 0 Z " fill="#221E1F" transform="translate(317,397)"/>
<path d="M0 0 C26.4 0 52.8 0 80 0 C80.04030303 38.57895998 80.04030303 38.57895998 80.04882812 54.69335938 C80.05477147 65.83846494 80.06177412 76.98356298 80.07543945 88.12866211 C80.08538526 96.2440536 80.09185318 104.359439 80.09408849 112.47483641 C80.09539578 116.77459788 80.09848274 121.07434192 80.10573006 125.37409782 C80.11248865 129.41642842 80.11461729 133.45873432 80.11310768 137.50107002 C80.11338408 138.98904174 80.11539016 140.47701423 80.11920547 141.96498108 C80.12414014 143.98775138 80.12239816 146.01053476 80.12025452 148.03330994 C80.12117631 149.1680371 80.1220981 150.30276426 80.12304783 151.4718771 C80 154 80 154 79 155 C76.53551872 155.09500705 74.0992917 155.12556678 71.63452148 155.11352539 C70.85133828 155.11364593 70.06815508 155.11376646 69.26123905 155.11389065 C66.71449552 155.11314152 64.16782427 155.10551331 61.62109375 155.09765625 C60.05342647 155.09618683 58.48575869 155.09516612 56.91809082 155.09460449 C51.09121975 155.08935161 45.26435918 155.07539052 39.4375 155.0625 C26.423125 155.041875 13.40875 155.02125 0 155 C0 103.85 0 52.7 0 0 Z " fill="#221E1F" transform="translate(317,144)"/>
</svg>
